<svg version="1.1" id="Layer_1" xmlns="http://www.w3.org/2000/svg" xmlns:xlink="http://www.w3.org/1999/xlink" x="0px" y="0px"
    viewBox="0 0 337.8 93.9" style="enable-background:new 0 0 337.8 93.9;" xml:space="preserve">
    <g id="XMLID_1_">
<path id="XMLID_55_" class="st0" d="M45.7,6.1c0.8,0.9,1.2,1.8,1.2,2.6c0,0.7-0.2,1.4-0.7,1.9c-0.4,0.6-1,1.1-1.6,1.6
    c-0.6,0.5-1.3,0.9-2.1,1.3c-0.8,0.4-1.5,0.8-2.1,1.1l-0.4,0.2c-1.4,0.7-2.7,1.4-4.1,2c-1.4,0.6-2.7,1.1-4.1,1.6
    c-1.1,2.3-2.2,4.7-3.3,7c-1.1,2.4-2.1,4.7-2.9,7.1c-0.9,2.6-1.6,5.2-2.3,7.8c-0.6,2.6-1.2,5.3-1.6,8c-0.4,2.7-0.7,5.4-1,8.1
    c-0.3,2.7-0.5,5.4-0.8,8.1c0,0.2,0,0.3-0.1,0.5c0,0.2-0.1,0.3-0.1,0.5c-0.2,2.1-0.4,4.2-0.4,6.4c0,1.4,0.1,2.9,0.3,4.3
    c0.2,1.4,0.6,2.8,1.3,4.2c0.1,0.1,0.1,0.2,0.1,0.5c0,0.8-0.4,1.2-1.2,1.2c-0.4,0-0.7-0.2-0.8-0.6c-0.7-1.5-1.2-3.1-1.4-4.7
    c-0.2-1.6-0.4-3.2-0.4-4.8c0-1.5,0.1-3,0.2-4.6c0.1-1.5,0.2-3,0.3-4.6c0.2-3.3,0.5-6.5,0.9-9.8c0.4-3.2,1-6.5,1.6-9.7
    c0.6-3.4,1.5-6.6,2.5-9.7c1-3.1,2.2-6.1,3.6-9.2l2.5-5.4c-1,0.2-2.1,0.4-3.1,0.6c-1,0.2-2.1,0.3-3.2,0.4c-0.6,0.1-1.3,0.1-1.9,0.1
    c-0.6,0-1.3,0-1.9,0c-2.5,0-4.9-0.1-7.3-0.3c-2.4-0.2-4.8-0.5-7.3-0.8c-0.7,0-1.1-0.3-1.1-1c0-0.4,0.2-0.8,0.5-1.1
    C4,17,4.3,16.9,4.6,16.9c0.2,0,0.5,0.1,0.7,0.4c2.1,0.2,4.2,0.4,6.4,0.6c2.2,0.2,4.4,0.2,6.5,0.2c2.1,0,4.1-0.1,6.1-0.3
    c2-0.2,4-0.6,5.9-1.1l0.7-1.4c0.6-1.2,1.1-2.5,1.6-3.8c0.5-1.3,1.3-2.4,2.2-3.3c0.9-0.8,2-1.6,3.4-2.3c1.4-0.8,2.8-1.1,4.1-1.1
    C43.7,4.7,44.9,5.2,45.7,6.1z M33.1,15.7c0.6-0.2,1.3-0.6,2-1c1.3-0.6,2.5-1.2,3.8-1.8c1.2-0.6,2.4-1.2,3.5-1.9
    c0.4-0.2,0.9-0.6,1.4-1c0.5-0.4,0.8-0.9,0.8-1.4c0-0.3-0.2-0.6-0.5-1c-0.6-0.4-1.3-0.6-2-0.6h-0.5c-2.5,0.3-4.3,1.3-5.5,3.1
    C35,11.9,34,13.7,33.1,15.7z"/>
<path id="XMLID_58_" class="st0" d="M77.8,40c0.2-0.2,0.4-0.2,0.7-0.2c0.8,0,1.2,0.4,1.2,1.1c0,0.3-0.1,0.6-0.4,0.8
    c-2.2,2.1-4.5,4-6.8,5.9c-2.3,1.8-4.6,3.8-7,5.8c-1.2,1-2.4,1.9-3.6,2.9c-1.2,1-2.5,1.9-3.8,2.8c-1.1,0.7-2.2,1.4-3.3,2.2
    c-1.1,0.7-2.3,1.1-3.7,1.1c-1.2,0-2-0.4-2.5-1.1c-0.4-0.8-0.7-1.7-0.7-2.8c0-1.1,0.1-2.3,0.4-3.5c0.3-1.2,0.5-2.1,0.8-2.8
    c0.2-0.7,0.4-1.5,0.6-2.2c0.2-0.8,0.4-1.5,0.6-2.2c0-0.1,0-0.2,0.1-0.4c0-0.2,0.1-0.4,0.1-0.5c0-0.6-0.2-1-0.6-1
    c-0.3,0-0.6,0.1-0.8,0.4c-0.2,0.2-0.5,0.3-0.7,0.5c-0.2,0.2-0.5,0.5-0.7,0.8c-1.1,1.1-2,2.4-2.6,3.7c-0.6,1.4-1.1,2.8-1.5,4.3
    c-0.1,0.6-0.4,0.8-1.1,0.8c-0.4,0-0.7-0.2-1-0.5c-0.2-0.4-0.4-0.8-0.5-1.3c-0.1-0.4-0.1-0.9-0.1-1.4s0-0.9,0.1-1.4
    c0-0.4,0.1-0.9,0.2-1.3c0.2-1.3,0.4-2.6,0.4-4c0.2-1.9,0.4-3.8,0.7-5.8c0.3-1.9,0.7-3.8,1.1-5.6c0.6-2.4,1.5-4.8,2.5-7.1
    c1-2.4,2.2-4.6,3.5-6.7c0.9-1.4,1.9-2.7,3.1-4.1c1.2-1.4,2.7-2.2,4.5-2.5c0.3-0.1,0.7-0.1,1.2-0.1c1.4,0,2.4,0.4,3,1.3
    c0.6,0.8,0.8,1.9,0.8,3.1c0,1.8-0.4,3.6-1.2,5.4c-0.7,1.6-1.6,3.1-2.6,4.4c-1,1.3-2.2,2.6-3.5,3.8c-1.6,1.5-3.2,3-4.9,4.5
    c-1.7,1.5-3.4,2.9-5.3,4.1c-0.2,1-0.3,1.9-0.4,2.9c-0.1,1-0.2,2-0.2,3c0,0.3,0,0.6-0.1,0.9c0,0.3-0.1,0.6-0.1,0.9
    c0.7-1.4,1.6-2.6,2.6-3.6c1-1,2.4-1.6,4-1.8h0.5c0.8,0,1.3,0.3,1.6,0.8c0.3,0.5,0.4,1.2,0.4,2.1c0,0.7-0.1,1.5-0.3,2.5
    c-0.2,0.9-0.4,1.8-0.7,2.6c-0.2,0.8-0.5,1.5-0.7,2.2c-0.2,0.6-0.3,1.1-0.4,1.3c-0.2,0.5-0.3,1-0.4,1.7c-0.1,0.6-0.2,1.2-0.2,1.8
    c0,0.4,0,0.7,0.1,0.8c0.2,0.6,0.6,0.8,1.2,0.8c0.7,0,1.6-0.3,2.5-0.9s1.6-1,1.9-1.3c1.4-1,2.7-2,4-3c1.3-1,2.6-2.1,3.9-3.2
    c2.3-1.9,4.7-3.8,7-5.7C73.2,44,75.5,42,77.8,40z M55.6,17.5c-1.4,1-2.7,2.3-3.7,3.9c-1,1.6-1.9,3.1-2.6,4.7
    c-0.9,1.8-1.7,3.7-2.5,5.7c-0.8,2-1.3,4-1.7,6.1c1.4-1,2.7-2.1,3.9-3.3c1.2-1.2,2.5-2.3,3.8-3.4c1.1-1.1,2.2-2.3,3.2-3.4
    c1-1.2,1.9-2.5,2.6-3.9c0.4-0.6,0.7-1.4,1-2.2c0.2-0.8,0.4-1.7,0.5-2.6c0-0.7-0.2-1.3-0.6-1.7c-0.4-0.4-0.9-0.6-1.6-0.6
    C57,16.8,56.3,17,55.6,17.5z"/>
<path id="XMLID_61_" class="st0" d="M112.3,40c0.2-0.2,0.4-0.2,0.7-0.2c0.8,0,1.2,0.4,1.2,1.1c0,0.2-0.1,0.5-0.4,0.7
    c-1.6,1.6-3.2,3.2-4.8,4.9c-1.6,1.6-3.2,3.2-4.9,4.6c-1.7,1.4-3.4,2.8-5.2,4.2c-1.8,1.4-3.7,2.5-5.8,3.4c-0.9,0.3-1.7,0.5-2.5,0.5
    c-1.4,0-2.3-0.6-2.9-1.7c-0.6-1.1-0.8-2.5-0.8-4.2c0-1.6,0.2-3.1,0.5-4.4c-0.2,0.4-0.5,0.7-0.8,1c-0.3,0.3-0.6,0.6-0.9,0.9
    c-0.8,0.9-1.7,1.8-2.8,2.6c-1.1,0.9-2.3,1.3-3.7,1.3c-0.4,0-0.7,0-1-0.1c-1-0.2-1.8-0.7-2.2-1.7c-0.4-1-0.6-2.1-0.6-3.4
    c0-1.8,0.3-3.7,0.9-5.6c0.6-1.9,1.2-3.2,1.7-4c0.3-0.3,0.6-0.5,0.7-0.5c0.8,0,1.2,0.4,1.2,1.3c0,0.2-0.1,0.5-0.4,0.7
    c-0.4,0.5-0.7,1.2-0.9,2.2c-0.2,1-0.4,1.8-0.5,2.3c-0.1,0.5-0.2,1-0.4,1.5c-0.2,0.5-0.2,1-0.2,1.5c0.1,0.4,0.2,1,0.2,1.8
    c0.1,0.8,0.4,1.3,0.8,1.6c0.1,0.1,0.2,0.1,0.5,0.1c0.6,0,1.1-0.2,1.7-0.6c0.6-0.4,1.1-0.7,1.4-1c1.7-1.4,3.1-3.1,4.3-4.9
    c1.2-1.8,2.4-3.6,3.8-5.3l0.2-0.5c0.2-0.2,0.5-0.4,0.8-0.4c0.7,0,1.1,0.4,1.1,1.2c0,0.2-0.1,0.4-0.2,0.7l-0.5,0.6
    c-0.6,0.9-1,1.8-1.2,2.8c-0.2,1-0.4,2-0.6,3c-0.2,0.8-0.4,1.6-0.6,2.5c-0.2,0.8-0.4,1.8-0.4,2.8c0,0.5,0.1,1.2,0.2,2.2
    c0.2,1,0.6,1.4,1.2,1.4c0.8-0.1,1.6-0.3,2.3-0.7c0.6-0.3,1.1-0.6,1.7-0.9c0.6-0.3,1.1-0.6,1.7-1c2.8-1.8,5.4-3.9,7.7-6.1
    c2.4-2.2,4.7-4.5,7-6.8l0.7-0.7L112.3,40z"/>
<path id="XMLID_63_" class="st0" d="M132.3,55.2c0-0.1-0.1-0.3-0.2-0.6c-0.1-0.4-0.1-0.7-0.2-1c0-0.3-0.1-0.6-0.1-1
    c0-1,0.1-1.9,0.4-2.9s0.6-1.9,1-2.9c0.4-1.4,0.8-2.7,1.3-4c0.4-1.3,0.9-2.6,1.5-4c1.1-2.4,2.3-4.8,3.5-7.1c1.2-2.3,2.6-4.6,4.1-6.7
    v-1.7c0-1.3-0.1-2.5-0.2-3.8c-0.2-1.2-0.5-2.4-1-3.5c-0.1-0.1-0.1-0.2-0.1-0.5c0-0.8,0.4-1.2,1.2-1.2c0.5,0,0.8,0.2,0.8,0.6
    c0.1,0.2,0.2,0.7,0.5,1.4c0.2,0.7,0.4,1.4,0.6,2.1c0.2,0.7,0.3,1.4,0.5,2c0.2,0.6,0.2,1,0.2,1.3c0.8-1.1,1.7-2.3,2.7-3.5
    c1-1.2,2-2.4,3.1-3.5c1.1-1.1,2.2-2.1,3.5-2.9c1.2-0.9,2.6-1.6,4-2c0.4-0.1,0.7-0.1,1-0.2c0.3,0,0.6-0.1,0.9-0.1
    c0.7,0,1.4,0.1,1.9,0.4c0.6,0.3,1,0.8,1.4,1.6c0.5,1,0.8,2,0.9,3.1c0.1,1.1,0.2,2.2,0.2,3.2c0,3.4-0.3,6.6-0.8,9.8
    c-0.6,3.2-1.2,6.4-1.8,9.7c-0.8,3.5-1.5,7-2.2,10.4c-0.7,3.4-1.3,6.9-2,10.5c-0.4,2.6-0.8,5.1-1.1,7.7c-0.3,2.6-0.5,5.1-0.5,7.7
    c0,2.2,0.1,4.2,0.4,6.2c0.1,0.6,0.2,1.4,0.5,2.2c0.2,0.8,0.6,1.5,1,2.2c0.4,0.7,1,1.2,1.6,1.7c0.6,0.4,1.4,0.7,2.3,0.7
    c1.3-0.2,2.5-0.5,3.6-1.1c1.1-0.6,2.2-1.3,3.2-2l0.4-0.2c0.3-0.2,0.5-0.2,0.6-0.2c0.7,0,1.1,0.4,1.1,1.2c0,0.4-0.2,0.7-0.5,1
    c-1.3,0.9-2.7,1.7-4.1,2.5c-1.5,0.8-3,1.1-4.5,1.1c-1.4,0-2.7-0.4-3.8-1.2c-1-0.7-1.7-1.6-2.2-2.6c-0.5-1-0.9-2.1-1.1-3.2
    c-0.2-1.2-0.4-2.3-0.5-3.5c-0.1-1.2-0.1-2.4-0.1-3.5v-1.6c0-3.2,0.3-6.4,0.8-9.5c0.5-3.1,1-6.3,1.5-9.6c0.5-3.4,1.1-6.7,1.9-9.9
    c0.8-3.2,1.5-6.5,2.2-9.9c0.5-2.3,1-4.7,1.5-7.3c0.5-2.5,0.8-5,0.8-7.5c0-1.8-0.2-3.3-0.5-4.6c-0.2-0.6-0.3-1.3-0.5-2.1
    c-0.2-0.8-0.6-1.3-1.4-1.3c-0.1,0-0.2,0-0.2,0.1c-0.1,0-0.2,0.1-0.4,0.1c-1.8,0.5-3.3,1.3-4.7,2.4c-1.3,1.1-2.5,2.3-3.5,3.4
    c-1.1,1.2-2.2,2.4-3.3,3.7l-3.4,4.6c0,0.4,0,0.7-0.1,1c0,0.3-0.1,0.6-0.1,1c-0.2,2.5-0.5,4.9-1.1,7.2c-0.6,2.3-1.3,4.6-2.2,7
    c-0.6,1.6-1.3,3.2-1.9,4.7c-0.6,1.6-1.4,3.1-2.2,4.5c0,0.1-0.1,0.2-0.2,0.4c-0.5,0.9-1.1,1.8-1.9,2.9c-0.8,1-1.7,1.6-2.8,1.6
    C132.9,55.9,132.5,55.6,132.3,55.2z M135.4,46.8c0,0.1,0,0.1-0.1,0.2c0,0-0.1,0.1-0.1,0.2c-0.3,0.9-0.6,1.7-0.8,2.6
    c-0.2,0.8-0.4,1.7-0.4,2.6c0,0.5,0,0.8,0.1,1.1c0.6-0.5,1.2-1.3,1.8-2.5c0.6-1.2,0.9-1.9,1.1-2.3c0.6-1.3,1.2-2.6,1.8-3.8
    c0.6-1.3,1.1-2.6,1.6-4l0.2-0.8c0.6-1.7,1.2-3.4,1.7-5.1c0.5-1.7,0.8-3.5,1-5.2c-0.9,1.4-1.7,2.7-2.4,4.1c-0.7,1.4-1.4,2.7-2,4.1
    c-0.6,1.5-1.2,3-1.8,4.5C136.5,43.8,135.9,45.3,135.4,46.8z"/>
<path id="XMLID_66_" class="st0" d="M203.7,41.9c-2.2,1.1-4.5,2.1-6.9,2.9c-2.4,0.8-4.7,1.7-7,2.7c-0.1,0.5-0.1,1-0.2,1.4
    c0,0.5-0.1,1-0.3,1.4c-0.6,2.7-1.5,5.3-2.6,7.9c-1.1,2.5-2.4,4.9-3.8,7.3c-1.4,2.2-2.9,4.4-4.6,6.4s-3.7,3.7-6.1,4.9l-0.7,0.4
    c-1,0.5-2.1,1-3.4,1.5c-1.3,0.5-2.5,0.8-3.7,0.8c-0.7,0-1.4-0.1-2-0.4c-0.6-0.3-1.2-0.8-1.6-1.6c-0.6-1-0.8-2.2-0.8-3.4
    c0-1.5,0.3-3,1-4.4c0.7-1.4,1.5-2.8,2.3-4.1c1.5-2.3,3.3-4.5,5.2-6.5c2-2,4.1-3.9,6.3-5.6c2-1.6,4.1-3,6.2-4.3
    c2.2-1.2,4.4-2.3,6.7-3.3c0.2-1.2,0.3-2.4,0.4-3.6c0.1-1.2,0.2-2.4,0.2-3.5c0-0.4,0-0.7,0.1-1c0-0.3,0.1-0.6,0.1-1
    c-0.9,0.6-1.9,1.4-3.1,2.2c-1.2,0.8-2.4,1.5-3.6,2.2c-1.2,0.7-2.4,1.2-3.5,1.7c-1.2,0.4-2.1,0.7-2.9,0.7c-1.4,0-2.2-0.8-2.3-2.3
    c0-1.1,0.4-2.2,1.1-3.2c0.7-1,1.5-2,2.4-2.9c0.9-1.1,1.9-2.2,3.2-3.1c1.2-1,2.6-1.6,4-2c0.6-0.2,1.2-0.4,2-0.4
    c0.7,0,1.4,0.1,2.1,0.4c0.7,0.3,1.1,0.8,1.4,1.6c0.1,0.2,0.1,0.5,0.1,0.8c0,0.3,0,0.5,0,0.8c0.2-0.2,0.5-0.4,0.7-0.4
    s0.5,0.1,0.7,0.4c0.2,0.2,0.4,0.6,0.4,1.1c-0.2,0.6-0.2,1.1-0.2,1.7c0,0.6,0,1.2-0.1,1.8c-0.2,1.2-0.3,2.4-0.4,3.7
    c-0.1,1.2-0.2,2.5-0.2,3.7c2.1-0.9,4.2-1.7,6.2-2.5c2.1-0.8,4.2-1.6,6.2-2.6c0.1-0.1,0.2-0.1,0.5-0.1c0.8,0,1.2,0.4,1.2,1.2
    C204.3,41.4,204.1,41.7,203.7,41.9z M183,60.6c1-2,1.8-4,2.6-6c0.8-2,1.3-4,1.7-6.1c-1.4,0.6-2.7,1.3-3.9,1.9
    c-1.2,0.6-2.4,1.3-3.5,2.1c-4.2,2.7-8,6-11.4,9.8c-0.6,0.7-1.3,1.5-2,2.4c-0.7,0.9-1.4,1.8-2,2.9c-0.6,1-1.2,2.1-1.6,3.2
    c-0.4,1.1-0.7,2.2-0.7,3.3c0,0.7,0.2,1.4,0.5,2.2c0.4,0.7,1,1.1,1.9,1.1c0.3,0,0.6,0,0.7-0.1c1.1-0.3,2.4-0.8,3.7-1.3
    c1.1-0.5,2.2-1,3.1-1.6c1-0.6,1.9-1.3,2.8-2.2c1.8-1.6,3.3-3.4,4.6-5.4C180.7,64.7,181.9,62.7,183,60.6z M177.4,40.8
    c1-0.4,1.9-0.9,2.8-1.4c0.9-0.5,1.8-1,2.8-1.5c1-0.6,1.9-1.2,2.8-2c-0.1-0.1-0.1-0.2-0.1-0.5c0-0.2,0.1-0.4,0.4-0.8
    c0.2-0.2,0.5-0.5,0.7-1c0.2-0.5,0.4-0.8,0.4-0.8c0-0.7-0.4-1.1-1.2-1.1c-0.5,0-1,0.1-1.4,0.4c-0.5,0.3-0.9,0.4-1.3,0.4
    c-0.9,0.5-1.7,1-2.5,1.6c-0.8,0.6-1.5,1.2-2.1,2c-0.7,0.9-1.3,1.6-1.7,2.1c-0.4,0.5-0.8,1.1-1.1,1.6c-0.3,0.6-0.5,1-0.5,1.2
    c0,0.2,0.1,0.2,0.2,0.2c0.2,0,0.6-0.1,1-0.2C176.9,41,177.2,40.9,177.4,40.8z"/>
<path id="XMLID_70_" class="st0" d="M237.1,40c0.2-0.2,0.4-0.2,0.7-0.2c0.8,0,1.2,0.4,1.2,1.1c0,0.2-0.1,0.5-0.4,0.7
    c-1.6,1.6-3.2,3.2-4.8,4.9c-1.6,1.6-3.2,3.2-4.9,4.6c-1.7,1.4-3.4,2.8-5.2,4.2c-1.8,1.4-3.7,2.5-5.8,3.4c-0.9,0.3-1.7,0.5-2.5,0.5
    c-1.4,0-2.3-0.6-2.9-1.7c-0.6-1.1-0.8-2.5-0.8-4.2c0-1.6,0.2-3.1,0.5-4.4c-0.2,0.4-0.5,0.7-0.8,1c-0.3,0.3-0.6,0.6-0.9,0.9
    c-0.8,0.9-1.7,1.8-2.8,2.6c-1.1,0.9-2.3,1.3-3.7,1.3c-0.4,0-0.7,0-1-0.1c-1-0.2-1.8-0.7-2.2-1.7c-0.4-1-0.6-2.1-0.6-3.4
    c0-1.8,0.3-3.7,0.9-5.6c0.6-1.9,1.2-3.2,1.7-4c0.3-0.3,0.6-0.5,0.7-0.5c0.8,0,1.2,0.4,1.2,1.3c0,0.2-0.1,0.5-0.4,0.7
    c-0.4,0.5-0.7,1.2-0.9,2.2c-0.2,1-0.4,1.8-0.5,2.3c-0.1,0.5-0.2,1-0.4,1.5c-0.2,0.5-0.2,1-0.2,1.5c0.1,0.4,0.2,1,0.2,1.8
    c0.1,0.8,0.4,1.3,0.8,1.6c0.1,0.1,0.2,0.1,0.5,0.1c0.6,0,1.1-0.2,1.7-0.6c0.6-0.4,1.1-0.7,1.4-1c1.7-1.4,3.1-3.1,4.3-4.9
    c1.2-1.8,2.4-3.6,3.8-5.3l0.2-0.5c0.2-0.2,0.5-0.4,0.8-0.4c0.7,0,1.1,0.4,1.1,1.2c0,0.2-0.1,0.4-0.2,0.7l-0.5,0.6
    c-0.6,0.9-1,1.8-1.2,2.8c-0.2,1-0.4,2-0.6,3c-0.2,0.8-0.4,1.6-0.6,2.5c-0.2,0.8-0.4,1.8-0.4,2.8c0,0.5,0.1,1.2,0.2,2.2
    c0.2,1,0.6,1.4,1.2,1.4c0.8-0.1,1.6-0.3,2.3-0.7c0.6-0.3,1.1-0.6,1.7-0.9c0.6-0.3,1.1-0.6,1.7-1c2.8-1.8,5.4-3.9,7.7-6.1
    c2.4-2.2,4.7-4.5,7-6.8l0.7-0.7L237.1,40z"/>
<path id="XMLID_72_" class="st0" d="M273.9,40c0.2-0.1,0.4-0.1,0.6-0.1c0.7,0,1.1,0.4,1.1,1.2c0,0.4-0.2,0.7-0.6,1
    c-3,1.8-6,3.8-8.9,5.9c-2.9,2.1-5.9,4.2-8.8,6.2c-0.9,0.6-1.8,1.3-2.8,2c-1,0.7-1.9,1.5-2.9,2.4c0,1.8-0.1,3.5-0.2,5.2
    c-0.2,1.7-0.5,3.4-1.1,5c-0.5,1.6-1.1,3.2-1.7,4.9c-0.7,1.7-1.7,3-2.9,4.1c-0.6,0.6-1.3,0.8-2,0.8c-0.8,0-1.5-0.3-2-1
    c-0.5-0.7-0.9-1.5-1-2.5c-0.1-0.4-0.1-1-0.1-1.7c0-3,0.9-5.9,2.8-8.6c1.8-2.7,3.9-5.1,6.1-7.3c0-1,0-2.1,0-3.1c0-1,0-2,0.1-2.9
    c0.1-1.1,0.1-2.3,0.1-3.4c0-1.2,0-2.3,0-3.4v-2.9c-0.9,1.4-1.7,2.8-2.3,4.2s-1.4,2.8-2.2,4.2c-0.5,0.9-1.1,1.9-1.8,3
    c-0.7,1.1-1.6,1.9-2.6,2.3c-0.2,0.2-0.6,0.2-1.2,0.2c-0.8,0-1.4-0.3-1.8-1c-0.4-0.7-0.6-1.5-0.7-2.3c0-0.8,0.1-1.6,0.2-2.3
    c0.1-0.8,0.2-1.5,0.2-2.3V40c0-0.7,0.4-1.1,1.1-1.1c0.2,0,0.5,0.1,0.7,0.2c0.2,0.2,0.4,0.4,0.4,0.8v5.2c0,0.9,0,1.8,0,2.6
    c0,0.9,0,1.7-0.1,2.4v1.3c0,0.5,0,1,0,1.5c0,0.5,0.1,0.7,0.2,0.7c0.9-0.6,1.6-1.4,2-2.2c1.6-2.2,2.9-4.4,3.9-6.8
    c1-2.4,2.4-4.6,4.3-6.5c0.2-0.2,0.5-0.4,0.7-0.4c0.6,0,1,0.4,1.2,1.1c0.2,1.8,0.4,3.6,0.4,5.4c0,1.8-0.1,3.6-0.2,5.4
    c-0.1,1.8-0.2,3.6-0.2,5.4v0.6l1.2-1.1c1.8-1.4,3.5-2.6,5.3-3.8c1.8-1.2,3.6-2.4,5.3-3.7c1.7-1.3,3.4-2.5,5.1-3.7
    C270.2,42.2,272,41.1,273.9,40z M245.7,73.9c1-1.6,1.7-3.4,2.3-5.3c0.6-1.9,1-3.8,1.1-5.8c0-0.4,0-0.8,0.1-1.1
    c0-0.3,0.1-0.7,0.1-1.1c-1.5,1.6-2.9,3.3-4,5c-1.2,1.8-1.9,3.6-2.3,5.5c-0.2,0.6-0.2,1.4-0.2,2.4c0,0.6,0.1,1.2,0.2,1.8
    s0.4,0.8,0.8,0.8c0.5-0.2,0.9-0.6,1.2-1C245.1,74.9,245.4,74.4,245.7,73.9z"/>
<path id="XMLID_75_" class="st0" d="M305.8,40c0.2-0.2,0.3-0.2,0.5-0.2c0.3,0,0.6,0.1,0.8,0.4c0.2,0.3,0.3,0.6,0.3,0.9
    c0,0.4-0.2,0.7-0.5,1c-1.2,0.9-2.7,1.8-4.5,2.7c-1.8,0.9-3.7,1.7-5.6,2.5c-1.9,0.7-3.9,1.3-5.8,1.8c-2,0.5-3.7,0.7-5.3,0.7H285
    c-1.6,0-3.2-0.3-4.7-0.8c-1.5-0.6-2.6-1.6-3.2-3c-0.5-1-0.7-2.1-0.7-3.4c0-0.2,0-0.5,0-0.8c0-0.3,0-0.6,0.1-0.9l-1.4,1.1
    c-0.3,0.2-0.5,0.2-0.6,0.2c-0.7,0-1.1-0.4-1.1-1.2c0-0.4,0.2-0.7,0.5-1c1.1-0.7,2.2-1.5,3.1-2.3c0.2-0.6,0.4-1.3,0.6-1.9
    c0.2-0.6,0.4-1.2,0.6-1.8c0.6-1.4,1.3-2.8,2.3-4c1-1.2,2.2-1.9,3.8-1.9h0.4c0.9,0.2,1.5,0.6,1.7,1.3c0.3,0.7,0.4,1.3,0.4,2
    c0,0.6-0.2,1.2-0.5,1.8c-0.4,0.6-0.8,1-1.3,1.4c-0.9,0.8-1.8,1.6-2.8,2.3c-1,0.7-2,1.4-3.1,2.2c-0.2,0.6-0.3,1.1-0.4,1.6
    c-0.1,0.5-0.1,1.1-0.1,1.7c0,0.9,0.2,1.7,0.5,2.5c0.3,0.8,0.9,1.3,1.8,1.7c1.2,0.6,2.6,0.8,4.2,0.8c0.9,0,1.7-0.1,2.5-0.2
    c0.8-0.2,1.6-0.4,2.4-0.6c1-0.3,2.3-0.7,3.7-1.3c1.4-0.5,2.9-1.1,4.4-1.6c1.5-0.6,2.9-1.2,4.3-1.8C303.8,41.2,304.9,40.6,305.8,40z
        M283.7,30.4c-1,0.2-1.7,0.8-2.3,1.9c-0.6,1.1-1,2.2-1.4,3.4c0.5-0.4,1-0.8,1.4-1.1c0.5-0.3,0.9-0.7,1.3-1.1
    c0.3-0.2,0.7-0.5,1.1-0.9c0.4-0.4,0.7-0.7,0.8-1.1c-0.1,0-0.1,0-0.1-0.1v-0.2c-0.1-0.5-0.2-0.7-0.4-0.7H283.7z"/>
<path id="XMLID_78_" class="st0" d="M333,39.8c0.7,0,1.1,0.4,1.1,1.2c0,0.3-0.2,0.6-0.5,0.8c-1.1,0.9-2.6,2-4.4,3.4
    c-1.8,1.4-3.8,2.8-5.8,4.2c-2,1.4-3.9,2.6-5.8,3.6c-1.9,1-3.4,1.5-4.6,1.5c-1,0-1.6-0.5-1.9-1.4c-0.2-0.6-0.4-1.2-0.4-1.8
    c0-1.6,0.5-3.3,1.4-5c0.9-1.8,1.6-3.4,2-5c0-0.2-0.1-0.4-0.2-0.4c-0.2,0-0.4,0.1-0.6,0.2c-0.2,0.1-0.5,0.2-0.7,0.3
    c-0.5,0.3-1,0.6-1.5,0.9c-0.5,0.3-1,0.6-1.4,1c-0.9,0.9-1.7,1.8-2.5,2.8c-0.8,1-1.6,1.9-2.5,2.9c-0.2,0.2-0.5,0.4-0.7,0.4
    c-0.4,0-0.7-0.2-0.9-0.5c-0.2-0.3-0.3-0.7-0.3-1.1c0.2-1.2,0.7-2.5,1.3-4c0.6-1.4,1.2-2.7,1.7-3.8c0.2-0.6,0.7-0.8,1.3-0.8
    c0.4,0,0.6,0.4,0.6,1.3c-0.1,0.3-0.2,0.8-0.4,1.4c-0.2,0.6-0.4,1.1-0.5,1.4c0.9-0.9,1.8-1.7,2.8-2.5c1-0.8,2.1-1.4,3.4-1.9
    c0.5-0.2,1-0.4,1.7-0.4c0.9,0,1.4,0.4,1.7,1.1c0.2,0.6,0.2,1,0.2,1.2c0,0.6-0.1,1.3-0.4,2c-0.3,0.7-0.5,1.3-0.8,2
    c-0.1,0.1-0.1,0.2-0.1,0.2c0,0.1,0,0.2-0.1,0.4c0,0.1,0,0.1-0.1,0.1c0,0-0.1,0-0.1,0.1c-0.4,1-0.8,2-1.2,3.1
    c-0.4,1.1-0.6,2.1-0.6,2.9V52c0,0.2,0.1,0.2,0.2,0.2c0.4,0.1,0.9,0,1.4-0.2c0.6-0.2,1.2-0.5,1.8-0.8c0.7-0.3,1.4-0.7,2.2-1.2
    l13.7-10C332.6,39.9,332.8,39.8,333,39.8z"/>
    </g>
    </svg>